<mxfile host="app.diagrams.net" modified="2024-02-27T14:54:23.476Z" agent="Mozilla/5.0 (Windows NT 10.0; Win64; x64) AppleWebKit/537.36 (KHTML, like Gecko) Chrome/122.0.0.0 Safari/537.36 Edg/122.0.0.0" etag="CzDd28gQCnUEpwvWqoJL" version="23.1.7" type="github">
  <diagram id="6a731a19-8d31-9384-78a2-239565b7b9f0" name="Page-1">
    <mxGraphModel dx="1224" dy="31" grid="1" gridSize="10" guides="1" tooltips="1" connect="1" arrows="1" fold="1" page="1" pageScale="1" pageWidth="1169" pageHeight="827" background="none" math="0" shadow="0">
      <root>
        <mxCell id="0" />
        <mxCell id="1" parent="0" />
        <mxCell id="sxkcjDX0uHKO2EKK1Eec-74" value="" style="rounded=0;whiteSpace=wrap;html=1;fillColor=none;dashed=1;" vertex="1" parent="1">
          <mxGeometry x="80" y="1010" width="240" height="130" as="geometry" />
        </mxCell>
        <mxCell id="sxkcjDX0uHKO2EKK1Eec-56" value="&lt;font style=&quot;font-size: 16px;&quot;&gt;产品/故障&lt;/font&gt;" style="rounded=0;whiteSpace=wrap;html=1;fontSize=16;fontFamily=华文中宋;fillColor=none;" vertex="1" parent="1">
          <mxGeometry x="120" y="1030" width="160" height="40" as="geometry" />
        </mxCell>
        <mxCell id="sxkcjDX0uHKO2EKK1Eec-68" value="" style="edgeStyle=orthogonalEdgeStyle;rounded=0;orthogonalLoop=1;jettySize=auto;html=1;endArrow=blockThin;endFill=1;" edge="1" parent="1" source="sxkcjDX0uHKO2EKK1Eec-57" target="sxkcjDX0uHKO2EKK1Eec-58">
          <mxGeometry relative="1" as="geometry" />
        </mxCell>
        <mxCell id="sxkcjDX0uHKO2EKK1Eec-57" value="&lt;font style=&quot;font-size: 16px;&quot;&gt;可用测试/测试点&lt;/font&gt;" style="rounded=0;whiteSpace=wrap;html=1;fontSize=16;fontFamily=华文中宋;fillColor=none;" vertex="1" parent="1">
          <mxGeometry x="120" y="1080" width="160" height="40" as="geometry" />
        </mxCell>
        <mxCell id="sxkcjDX0uHKO2EKK1Eec-69" value="" style="edgeStyle=orthogonalEdgeStyle;rounded=0;orthogonalLoop=1;jettySize=auto;html=1;strokeColor=default;align=center;verticalAlign=middle;fontFamily=Helvetica;fontSize=11;fontColor=default;labelBackgroundColor=default;endArrow=blockThin;endFill=1;" edge="1" parent="1" source="sxkcjDX0uHKO2EKK1Eec-58" target="sxkcjDX0uHKO2EKK1Eec-59">
          <mxGeometry relative="1" as="geometry" />
        </mxCell>
        <mxCell id="sxkcjDX0uHKO2EKK1Eec-58" value="&lt;font style=&quot;font-size: 16px;&quot;&gt;相关性图示模型&lt;/font&gt;" style="rounded=0;whiteSpace=wrap;html=1;fontSize=16;fontFamily=华文中宋;fillColor=none;" vertex="1" parent="1">
          <mxGeometry x="120" y="1160" width="160" height="40" as="geometry" />
        </mxCell>
        <mxCell id="sxkcjDX0uHKO2EKK1Eec-70" value="" style="edgeStyle=orthogonalEdgeStyle;rounded=0;orthogonalLoop=1;jettySize=auto;html=1;strokeColor=default;align=center;verticalAlign=middle;fontFamily=Helvetica;fontSize=11;fontColor=default;labelBackgroundColor=default;endArrow=blockThin;endFill=1;" edge="1" parent="1" source="sxkcjDX0uHKO2EKK1Eec-59" target="sxkcjDX0uHKO2EKK1Eec-60">
          <mxGeometry relative="1" as="geometry" />
        </mxCell>
        <mxCell id="sxkcjDX0uHKO2EKK1Eec-59" value="&lt;font style=&quot;font-size: 16px;&quot;&gt;一阶相关性关系&lt;/font&gt;" style="rounded=0;whiteSpace=wrap;html=1;fontSize=16;fontFamily=华文中宋;fillColor=none;" vertex="1" parent="1">
          <mxGeometry x="120" y="1240" width="160" height="40" as="geometry" />
        </mxCell>
        <mxCell id="sxkcjDX0uHKO2EKK1Eec-71" value="" style="edgeStyle=orthogonalEdgeStyle;rounded=0;orthogonalLoop=1;jettySize=auto;html=1;strokeColor=default;align=center;verticalAlign=middle;fontFamily=Helvetica;fontSize=11;fontColor=default;labelBackgroundColor=default;endArrow=blockThin;endFill=1;" edge="1" parent="1" source="sxkcjDX0uHKO2EKK1Eec-60" target="sxkcjDX0uHKO2EKK1Eec-61">
          <mxGeometry relative="1" as="geometry" />
        </mxCell>
        <mxCell id="sxkcjDX0uHKO2EKK1Eec-60" value="&lt;font style=&quot;font-size: 16px;&quot;&gt;D矩阵模型&lt;/font&gt;" style="rounded=0;whiteSpace=wrap;html=1;fontSize=16;fontFamily=华文中宋;fillColor=none;" vertex="1" parent="1">
          <mxGeometry x="120" y="1320" width="160" height="40" as="geometry" />
        </mxCell>
        <mxCell id="sxkcjDX0uHKO2EKK1Eec-72" value="" style="edgeStyle=orthogonalEdgeStyle;rounded=0;orthogonalLoop=1;jettySize=auto;html=1;strokeColor=default;align=center;verticalAlign=middle;fontFamily=Helvetica;fontSize=11;fontColor=default;labelBackgroundColor=default;endArrow=blockThin;endFill=1;" edge="1" parent="1" source="sxkcjDX0uHKO2EKK1Eec-61" target="sxkcjDX0uHKO2EKK1Eec-62">
          <mxGeometry relative="1" as="geometry" />
        </mxCell>
        <mxCell id="sxkcjDX0uHKO2EKK1Eec-61" value="测试/测试点优选计算" style="rounded=0;whiteSpace=wrap;html=1;fontSize=16;fontFamily=华文中宋;fillColor=none;" vertex="1" parent="1">
          <mxGeometry x="120" y="1400" width="160" height="40" as="geometry" />
        </mxCell>
        <mxCell id="sxkcjDX0uHKO2EKK1Eec-73" value="" style="edgeStyle=orthogonalEdgeStyle;rounded=0;orthogonalLoop=1;jettySize=auto;html=1;strokeColor=default;align=center;verticalAlign=middle;fontFamily=Helvetica;fontSize=11;fontColor=default;labelBackgroundColor=default;endArrow=blockThin;endFill=1;" edge="1" parent="1" source="sxkcjDX0uHKO2EKK1Eec-62" target="sxkcjDX0uHKO2EKK1Eec-64">
          <mxGeometry relative="1" as="geometry" />
        </mxCell>
        <mxCell id="sxkcjDX0uHKO2EKK1Eec-62" value="建立诊断策略" style="rounded=0;whiteSpace=wrap;html=1;fontSize=16;fontFamily=华文中宋;fillColor=none;" vertex="1" parent="1">
          <mxGeometry x="120" y="1480" width="160" height="40" as="geometry" />
        </mxCell>
        <mxCell id="sxkcjDX0uHKO2EKK1Eec-64" value="预计故障检测率、故障隔离率" style="rounded=1;whiteSpace=wrap;html=1;arcSize=50;fontFamily=华文中宋;fontSize=16;fillColor=none;" vertex="1" parent="1">
          <mxGeometry x="80" y="1560" width="240" height="40" as="geometry" />
        </mxCell>
        <mxCell id="sxkcjDX0uHKO2EKK1Eec-66" value="" style="edgeStyle=orthogonalEdgeStyle;rounded=0;orthogonalLoop=1;jettySize=auto;html=1;endArrow=blockThin;endFill=1;" edge="1" parent="1" source="sxkcjDX0uHKO2EKK1Eec-65" target="sxkcjDX0uHKO2EKK1Eec-56">
          <mxGeometry relative="1" as="geometry" />
        </mxCell>
        <mxCell id="sxkcjDX0uHKO2EKK1Eec-65" value="FME/CA" style="rounded=1;whiteSpace=wrap;html=1;arcSize=50;fontFamily=华文中宋;fontSize=16;dashed=1;fillColor=none;" vertex="1" parent="1">
          <mxGeometry x="120" y="950" width="160" height="40" as="geometry" />
        </mxCell>
        <mxCell id="sxkcjDX0uHKO2EKK1Eec-75" value="" style="edgeStyle=elbowEdgeStyle;elbow=horizontal;endArrow=classic;html=1;curved=0;rounded=0;endSize=6;startSize=6;" edge="1" parent="1">
          <mxGeometry width="50" height="50" relative="1" as="geometry">
            <mxPoint x="200" y="1220" as="sourcePoint" />
            <mxPoint x="200" y="1300" as="targetPoint" />
            <Array as="points">
              <mxPoint x="340" y="1300" />
            </Array>
          </mxGeometry>
        </mxCell>
        <mxCell id="sxkcjDX0uHKO2EKK1Eec-76" value="" style="edgeStyle=elbowEdgeStyle;elbow=horizontal;endArrow=blockThin;html=1;curved=0;rounded=0;endSize=6;startSize=6;endFill=1;" edge="1" parent="1">
          <mxGeometry width="50" height="50" relative="1" as="geometry">
            <mxPoint x="200" y="1380" as="sourcePoint" />
            <mxPoint x="200" y="1540" as="targetPoint" />
            <Array as="points">
              <mxPoint x="340" y="1460" />
            </Array>
          </mxGeometry>
        </mxCell>
      </root>
    </mxGraphModel>
  </diagram>
</mxfile>
